<svg xmlns="http://www.w3.org/2000/svg" width="1440" height="213" viewBox="0 0 1440 213">
    <g fill="none" fill-rule="evenodd">
        <path fill="#FFF" d="M283.05 171h63.9v39h-115.2V-.6h51.3V171zM426.75-.6V210h-51.3V-.6h51.3zM615.6 179.55c-6.5 9.9-15.7 17.8-27.6 23.7-11.9 5.9-25.35 8.85-40.35 8.85-24.6 0-44.15-5.7-58.65-17.1-14.5-11.4-21.75-27.6-21.75-48.6h54.6c1.4 16.8 10 25.2 25.8 25.2 7.4 0 13.2-1.95 17.4-5.85 4.2-3.9 6.3-9.05 6.3-15.45 0-5.6-1.8-10.2-5.4-13.8-3.6-3.6-8-6.4-13.2-8.4-5.2-2-12.7-4.4-22.5-7.2-13.2-3.6-24-7.3-32.4-11.1-8.4-3.8-15.6-9.6-21.6-17.4-6-7.8-9-18.2-9-31.2s3.4-24.4 10.2-34.2c6.8-9.8 16.05-17.35 27.75-22.65 11.7-5.3 24.65-7.95 38.85-7.95 23.4 0 42.1 5.15 56.1 15.45 14 10.3 21.3 26.55 21.9 48.75h-55.8c-.8-7.6-3.25-13.45-7.35-17.55-4.1-4.1-9.25-6.15-15.45-6.15-6.6 0-11.95 1.7-16.05 5.1-4.1 3.4-6.15 8.6-6.15 15.6 0 5.8 1.8 10.55 5.4 14.25 3.6 3.7 8.15 6.6 13.65 8.7 5.5 2.1 12.95 4.35 22.35 6.75 13.4 3.8 24.25 7.5 32.55 11.1 8.3 3.6 15.4 9.35 21.3 17.25s8.85 18.45 8.85 31.65c0 11.6-3.25 22.35-9.75 32.25zM817.65-.6v39h-57.6V210h-51.3V38.4h-57.3v-39h166.2zm81.9 38.4v45.3h67.2v39h-67.2V171h76.2v39h-127.5V-1.2h127.5v39h-76.2zm308.7 172.2h-51.3l-85.8-132.9V210h-51.3V-1.2h51.3l85.8 132.9V-1.2h51.3V210z"/>
        <path fill="#FFF" d="M0 86h233v38H0zM1207 86h234v38h-234z"/>
        <path fill="#000" d="M60 102h2.643v6.889h.917V102h2.643v-.889H60V102zm11.758 6.889h4.37V108h-3.453v-2.6h3.02v-.889h-3.02V102h3.344v-.889h-4.26v7.778zm10.518 0h4.639V108h-3.722v-6.889h-.917v7.778zm10.248 0h4.37V108H93.44v-2.6h3.02v-.889h-3.02V102h3.344v-.889h-4.26v7.778zm13.679-3.067h2.039v1.6c-.4.4-1.23.69-1.942.69-1.715 0-2.88-1.223-2.88-3.112 0-1.878 1.165-3.111 2.848-3.111.722 0 1.423.211 1.866.622l.399-.755c-.615-.5-1.349-.756-2.373-.756-2.255 0-3.711 1.767-3.711 4 0 2.422 1.478 4 3.83 4 .938 0 2.157-.389 2.826-1.078v-2.989h-2.902v.89zm9.914 3.067v-3.111h1.23l2.319 3.11h1.121l-2.513-3.288c.83-.222 1.64-.989 1.64-2.2 0-1.256-.626-2.311-2.686-2.311-.216 0-1.608.022-2.028.022v7.778h.917zm1.057-6.911c1.337 0 1.769.633 1.769 1.433 0 .922-.842 1.478-1.715 1.478h-1.111V102c.355-.011.82-.022 1.057-.022zm8.177 6.91h.927l.96-2.355h3.442l.97 2.356h.982l-3.247-7.822h-.787l-3.247 7.822zm3.613-6.566l1.36 3.322h-2.719l1.36-3.322zm10.195 6.567V105.9c.377.033.83.044 1.132.044 1.845 0 2.719-1.177 2.719-2.444 0-1.211-.637-2.411-2.794-2.411-.475 0-1.554.022-1.974.022v7.778h.917zm1.143-6.911c1.197 0 1.737.589 1.737 1.51 0 .979-.669 1.568-1.78 1.568-.378 0-.734-.023-1.1-.056v-3c.356-.011.841-.022 1.143-.022zm13.765 6.91h.917v-7.777h-.917v3.367h-4.153v-3.367h-.917v7.778h.917v-3.522h4.153v3.522zm12.75-1.466a3.026 3.026 0 0 1-1.93.69c-1.748 0-2.945-1.256-2.945-3.112 0-1.844 1.165-3.111 2.804-3.111.788 0 1.37.2 1.867.578l.42-.711c-.539-.478-1.326-.756-2.297-.756-2.363 0-3.765 1.767-3.765 4 0 2.422 1.564 4 3.83 4 .938 0 1.876-.333 2.383-.867l-.366-.71zm5.254-2.422c0 2.367 1.661 4 3.851 4s3.851-1.689 3.851-4c0-2.367-1.66-4-3.85-4-2.244 0-3.852 1.744-3.852 4zm.971 0c0-1.811 1.24-3.111 2.88-3.111 1.618 0 2.88 1.3 2.88 3.111 0 1.756-1.154 3.111-2.88 3.111-1.618 0-2.88-1.344-2.88-3.111zm12.934 3.889h.917v-7.778h-.917v7.778zm14.024 0v-7.778h-.863v6.133l-4.714-6.133h-.734v7.778h.863v-6.111l4.714 6.11H200z"/>
        <path fill="#FABF2C" d="M34.736 96c-.17 0-.31.133-.31.295L33 101.978c0 .162.14.295.31.295h5.453l-1.845 7.387a.3.3 0 0 0 .306.291H40.7l-1.337 4.758c-.069.206-.024.291.137.291.16 0 .275-.138.409-.291l6.553-7.477s.205-.193.205-.465a.303.303 0 0 0-.306-.291h-2.633l1.148-4.203h4.202c.17 0 .31-.133.31-.295L51 96.295a.304.304 0 0 0-.31-.295H34.736z"/>
        <g fill-rule="nonzero">
            <path fill="#FFCA28" d="M1258.075 95.495l-1.278 5.95h5.112l-3.408 12.753 4.716-2.445-1.734 6.696 11.927-16.153-6.39 2.125 1.279-2.975h5.963l1.278-5.951h-17.465zm.852.85h15.335l-.852 4.25h-5.963l-2.13 5.527 5.112-1.7-6.39 8.501.852-3.4-4.686 2.55 2.982-11.477h-5.112l.852-4.251z"/>
            <path fill="#000" d="M1255.626 103.34c-4.287 0-7.774-2.289-7.774-5.102 0-2.812 3.487-5.1 7.774-5.1 2.733 0 5.135.933 6.52 2.337h1.115c-1.446-1.893-4.324-3.188-7.635-3.188-4.756 0-8.626 2.67-8.626 5.951v10.415h.016c.164 3.182 3.957 5.738 8.61 5.738 1.023 0 2.002-.127 2.913-.354l.255-.95c-.97.286-2.038.454-3.168.454-4.287 0-7.774-2.288-7.774-5.1v-.84c1.391 2.001 4.348 3.39 7.774 3.39 1.404 0 2.727-.235 3.9-.648l.269-1.005c-1.206.506-2.634.803-4.169.803-4.287 0-7.774-2.289-7.774-5.101v-.84c1.391 2.002 4.348 3.39 7.774 3.39 1.833 0 3.526-.404 4.925-1.08l.295-1.106c-1.381.826-3.209 1.336-5.22 1.336-4.287 0-7.774-2.288-7.774-5.101v-.84c1.391 2.002 4.348 3.39 7.774 3.39 2.328 0 4.44-.642 5.994-1.68l.29-1.083h-.239c-1.425 1.163-3.6 1.913-6.045 1.913M1287.064 102.532h-2.25v6.11h-1.515v-6.11h-2.221v-1.224h5.986v1.224zm7.879 6.11h-1.514V105.5h-2.953v3.143h-1.515v-7.334h1.515v2.972h2.953v-2.972h1.514v7.334zm6.778-3.178h-2.908v1.964h3.413v1.214h-4.927v-7.334h4.917v1.224h-3.403v1.748h2.908v1.184zm11.804.735c-.057.79-.349 1.41-.875 1.864-.527.453-1.221.68-2.082.68-.943 0-1.684-.317-2.224-.95-.54-.633-.81-1.502-.81-2.606v-.449c0-.705.124-1.326.373-1.863.25-.538.605-.95 1.068-1.237.463-.287 1-.43 1.613-.43.848 0 1.53.226 2.05.68.517.453.817 1.09.898 1.908h-1.515c-.037-.473-.169-.816-.396-1.03-.227-.213-.573-.32-1.037-.32-.505 0-.883.181-1.133.542-.251.361-.38.92-.387 1.68v.554c0 .792.12 1.372.361 1.738.24.366.62.549 1.139.549.467 0 .816-.107 1.047-.32.23-.213.363-.543.396-.99h1.514zm8.066-1.058c0 .722-.128 1.355-.384 1.9a2.885 2.885 0 0 1-1.098 1.259c-.476.295-1.022.443-1.638.443-.609 0-1.152-.146-1.63-.438a2.913 2.913 0 0 1-1.11-1.252c-.263-.542-.396-1.166-.4-1.871v-.363c0-.722.13-1.358.392-1.907.26-.549.629-.97 1.105-1.264.476-.294 1.02-.44 1.633-.44s1.157.146 1.633.44c.476.294.845.715 1.105 1.264.261.55.392 1.183.392 1.902v.327zm-1.535-.332c0-.77-.138-1.353-.414-1.753-.276-.4-.67-.6-1.18-.6-.509 0-.901.198-1.177.592-.276.395-.416.973-.419 1.736v.357c0 .75.138 1.33.414 1.743.276.413.673.62 1.191.62.508 0 .899-.2 1.171-.597.273-.398.41-.978.414-1.74v-.358zm5.28 3.833h-1.515v-7.334h1.514v7.334zm8.413 0h-1.515l-2.948-4.825v4.825h-1.514v-7.334h1.514l2.953 4.836v-4.836h1.51v7.334zm7.742-6.11h-2.252v6.11h-1.514v-6.11h-2.22v-1.224h5.986v1.224zm6.318 2.932h-2.907v1.964h3.412v1.214h-4.926v-7.334h4.916v1.224h-3.402v1.748h2.907v1.184zm3.942 1.964h3.215v1.214h-4.73v-7.334h1.515v6.12zm9.539-1.964h-2.908v1.964h3.413v1.214h-4.927v-7.334h4.916v1.224h-3.402v1.748h2.908v1.184zm8.242 2.251c-.273.326-.658.579-1.156.758a4.85 4.85 0 0 1-1.656.27c-.636 0-1.194-.139-1.673-.416-.48-.277-.85-.679-1.11-1.206-.262-.527-.395-1.147-.402-1.859v-.498c0-.733.124-1.366.371-1.902a2.74 2.74 0 0 1 1.07-1.229c.466-.284 1.012-.426 1.638-.426.872 0 1.553.208 2.044.622.492.415.783 1.019.874 1.811h-1.474c-.068-.42-.216-.727-.447-.922-.23-.194-.548-.292-.951-.292-.515 0-.907.193-1.177.58-.269.386-.405.96-.408 1.722v.469c0 .769.146 1.35.439 1.743.292.392.722.589 1.287.589.569 0 .974-.121 1.216-.363v-1.264h-1.378v-1.113h2.893v2.926zm4.98-1.758h-1.206v2.685h-1.514v-7.334h2.73c.869 0 1.539.193 2.01.58.47.386.706.931.706 1.636 0 .5-.108.918-.325 1.252-.217.334-.546.6-.987.799l1.59 2.997v.07h-1.625l-1.378-2.685zm-1.206-1.224h1.222c.38 0 .675-.096.883-.29.209-.192.313-.459.313-.798 0-.346-.098-.618-.295-.816-.197-.198-.499-.297-.906-.297h-1.217v2.201zm10.266 2.398h-2.655l-.505 1.511h-1.61l2.736-7.334h1.403l2.751 7.334h-1.61l-.51-1.511zm-2.246-1.224h1.837l-.923-2.745-.914 2.745zm7.6.151v2.584h-1.513v-7.334h2.867c.552 0 1.037.1 1.456.302.419.202.741.488.967.86.225.37.338.792.338 1.266 0 .719-.247 1.285-.74 1.7-.493.415-1.175.622-2.047.622h-1.327zm0-1.224h1.354c.4 0 .706-.094.916-.282.21-.188.315-.457.315-.806 0-.36-.106-.65-.318-.871-.212-.222-.504-.336-.878-.343h-1.388v2.302zm12.17 3.808h-1.514V105.5h-2.953v3.143h-1.515v-7.334h1.515v2.972h2.953v-2.972h1.514v7.334z"/>
        </g>
    </g>
</svg>
