<svg xmlns="http://www.w3.org/2000/svg" width="18" height="15" viewBox="0 0 18 15">
    <path fill="#FABF2C" fill-rule="evenodd" d="M17.109 1.677a6.89 6.89 0 0 1-2.016.563A3.572 3.572 0 0 0 16.637.262a6.94 6.94 0 0 1-2.23.867A3.472 3.472 0 0 0 11.845 0C9.908 0 8.336 1.601 8.336 3.576c0 .28.03.553.09.815C5.51 4.24 2.923 2.819 1.191.653a3.623 3.623 0 0 0-.475 1.8c0 1.24.62 2.335 1.562 2.976a3.463 3.463 0 0 1-1.591-.446v.044c0 1.734 1.21 3.18 2.817 3.507a3.43 3.43 0 0 1-1.586.062c.447 1.42 1.742 2.455 3.279 2.483A6.958 6.958 0 0 1 0 12.56a9.818 9.818 0 0 0 5.38 1.606c6.458 0 9.988-5.45 9.988-10.175 0-.156-.003-.311-.01-.464a7.177 7.177 0 0 0 1.75-1.85"/>
</svg>
